<svg width="51" height="50" viewBox="0 0 51 50" fill="none" xmlns="http://www.w3.org/2000/svg">
<path d="M45.3889 23.0556H45.2222C45 21.2222 44.3889 19.4445 43.2222 18.0556C40.4444 14.6667 33.9444 13.9445 28.9444 13.9445C27.4444 13.9445 26.2222 14 25.7222 14.0556C25.1667 14 24 13.9445 22.5 13.9445C17.5 13.9445 11 14.6667 8.22222 18.0556C7.05555 19.5 6.44444 21.2778 6.22222 23.0556H5.38889C4.83333 23.0556 4.38889 23.5 4.38889 24.0556V25.9445C4.38889 26.5 4.83333 26.9445 5.38889 26.9445H6.22222H6.27777C6.44444 28.0556 6.72222 29.1111 7.11111 30.0556C8.38889 33.2222 10.5556 35.1667 13.1111 35.4445C13.5556 35.5 14 35.5 14.4444 35.5C16.0556 35.5 17.3889 35.1667 18.4444 34.6667C25.1111 25.9445 26.5 25.9445 32.3333 34.4445C33.4444 35.0556 34.9444 35.5 36.8333 35.5C37.2778 35.5 37.7222 35.5 38.1667 35.4445C40.6667 35.1667 42.8889 33.1667 44.1667 30.0556C44.5556 29.1111 44.8333 28.0556 45 26.9445H45.3889C45.9444 26.9445 46.3889 26.5 46.3889 25.9445V24.0556C46.3333 23.5 45.8889 23.0556 45.3889 23.0556ZM14.5 31.8889C14.1667 31.8889 13.8889 31.8889 13.5556 31.8333C12.3889 31.7222 11.2222 30.5 10.5 28.6667C9.44444 26.1111 9.27777 22.3889 11 20.3333C12.3889 18.6111 16.7222 17.5556 22.5 17.5556C22.9444 17.5556 23.3889 17.5556 23.7778 17.5556V21.6667C22.7222 22.8889 21.1667 25.3333 18.7222 30.2222C18.3889 30.6111 17.1111 31.8889 14.5 31.8889ZM40.9444 28.6667C40.1667 30.5556 39.0556 31.7222 37.8889 31.8333C37.5556 31.8889 37.2222 31.8889 36.9444 31.8889C34.3333 31.8889 33.0556 30.5556 32.7778 30.2222C30.2778 25.3889 28.7222 22.8889 27.6667 21.6667V17.5556C28.0556 17.5556 28.5 17.5556 28.9444 17.5556C34.7222 17.5556 39 18.6111 40.4444 20.3333C42.1667 22.3889 42 26.1111 40.9444 28.6667Z" fill="white"/>
<path d="M43.8334 33.7222C43.8334 33.7222 42.7222 35.1667 41.5556 35.8889C40.3889 36.5556 39.2222 36.7778 39.2222 36.7778V42.0556V42.1111V42.2222C39.2222 42.2778 39.2778 43.3889 38.5 44.1667C37.5556 45.1667 35.8334 45.3333 34.5556 45.3333C32.7222 45.3333 31.3889 44.9445 30.7778 44.2222C30.6111 44 30.5 43.7778 30.3889 43.5C31.8889 42.9445 32.5556 41.8889 32.8334 40.9445C33.0556 40.1111 32.2778 39.3333 31.4445 39.6667C28.6667 40.7222 26.1667 40.2222 24.6111 39.6667C23.7778 39.3889 22.9445 40.1667 23.2222 41C23.5556 41.9445 24.2222 43 25.7222 43.5C25.8334 44.5556 26.1667 45.8889 27.1667 47.1111C28.6667 48.9445 31.1667 49.8889 34.5 49.8889C37.7778 49.8889 40.2778 48.9445 41.9445 47.1667C43.8334 45.0556 43.8334 42.5556 43.8334 41.8889V33.7222Z" fill="white"/>
<path d="M39.2222 4.44446V10C36.8333 7.8889 32.3889 5.61112 25.3889 5.61112C12.6111 5.61112 9.27775 13.4445 9.16664 13.7778C9.16664 13.7778 8.7222 14.7222 8.61108 15.7222C8.61108 15.7222 10.2778 14.7222 11.0555 14.5556C11.1111 14.5 14 7.66668 25.3889 7.66668C34.1666 7.66668 37.9444 11.5 39.2222 13.3333V13.2222V13.2778C39.2222 13.2778 40.1111 13.3333 41.5555 14.2222C42.9444 15.0556 43.8333 16.0556 43.8333 16.0556V4.44446H39.2222Z" fill="white"/>
<path d="M43.8333 1.22222C43.8333 0.555555 43.2778 0 42.6111 0H40.4444C39.7778 0 39.2222 0.555555 39.2222 1.22222V3.38889H43.8333V1.22222Z" fill="white"/>
</svg>
