<svg width="51" height="50" viewBox="0 0 51 50" fill="none" xmlns="http://www.w3.org/2000/svg">
<path d="M7.1996 16.5871C6.69121 15.1063 6.81324 13.6016 7.54355 12.3504C8.25738 11.1284 9.47771 10.284 10.9798 9.97407C11.3981 9.88805 11.8245 9.84478 12.252 9.84495C12.61 9.84502 12.9675 9.87433 13.3206 9.93257V8.0681C12.4103 7.95097 11.4864 7.98512 10.5878 8.16909C8.55186 8.58967 6.88863 9.74949 5.90388 11.435C4.90264 13.1496 4.72595 15.1879 5.41009 17.1751C6.07303 19.1046 7.47288 20.7541 9.35143 21.8204C10.7225 22.5983 12.2336 23 13.7333 23C13.8224 23 13.9109 23 14 22.9954C13.801 22.3918 13.6451 21.7755 13.5335 21.1507C10.772 21.0677 8.10896 19.2323 7.1996 16.5871Z" fill="white"/>
<path d="M45.0961 11.4346C44.1114 9.74927 42.4481 8.58959 40.4122 8.16907C39.5136 7.98512 38.5897 7.95098 37.6794 8.06808V9.93187C38.4563 9.80289 39.251 9.81712 40.0226 9.97383C41.5247 10.2837 42.745 11.1266 43.4588 12.3499C44.1891 13.6009 44.3116 15.1054 43.8028 16.5861C42.8934 19.2314 40.2299 21.0666 37.4665 21.151C37.3549 21.7756 37.199 22.3919 37 22.9954C37.0886 22.9986 37.1776 23 37.2667 23C38.765 23 40.2765 22.5979 41.6486 21.8205C43.5271 20.7544 44.927 19.1051 45.5899 17.1758C46.274 15.1871 46.0974 13.149 45.0961 11.4346Z" fill="white"/>
<path d="M13 8.38491V18.6157C12.9996 19.3907 13.0696 20.164 13.2093 20.9261C13.318 21.5206 13.4693 22.1063 13.6621 22.6787C15.1528 27.1047 19.0132 30.4271 23.7187 31.1043V37.989H20.0636V40.4049H16.6729V44H34.3271V40.4049H30.9377V37.989H27.2808V31.1043C31.9863 30.4271 35.8472 27.1047 37.3379 22.6773C37.5307 22.1049 37.682 21.5192 37.7907 20.9247C37.9304 20.1627 38.0004 19.3893 38 18.6144V6H13V8.38491ZM23.9694 14.84L25.6169 9.7223L27.2643 14.8404H32.5968L31.6804 15.5122L28.2831 18.0032L29.9306 23.1213L25.6169 19.9581L21.3032 23.1209L22.9507 18.0028L19.2995 15.3257L18.637 14.84H23.9694Z" fill="white"/>
</svg>
